<?xml version="1.0" encoding="UTF-8"?>
<svg xmlns="http://www.w3.org/2000/svg" xmlns:xlink="http://www.w3.org/1999/xlink" width="432.42pt" height="300.965pt" viewBox="0 0 432.42 300.965" version="1.1">
<defs>
<g>
<symbol overflow="visible" id="glyph0-0">
<path style="stroke:none;" d=""/>
</symbol>
<symbol overflow="visible" id="glyph0-1">
<path style="stroke:none;" d="M 7.53125 -5.765625 C 7.640625 -6.15625 7.8125 -6.46875 8.609375 -6.5 C 8.65625 -6.5 8.78125 -6.515625 8.78125 -6.703125 C 8.78125 -6.703125 8.78125 -6.8125 8.65625 -6.8125 C 8.328125 -6.8125 7.96875 -6.78125 7.640625 -6.78125 C 7.3125 -6.78125 6.953125 -6.8125 6.625 -6.8125 C 6.5625 -6.8125 6.453125 -6.8125 6.453125 -6.609375 C 6.453125 -6.5 6.546875 -6.5 6.625 -6.5 C 7.203125 -6.484375 7.3125 -6.28125 7.3125 -6.0625 C 7.3125 -6.03125 7.28125 -5.875 7.28125 -5.859375 L 6.15625 -1.421875 L 3.953125 -6.625 C 3.875 -6.796875 3.875 -6.8125 3.640625 -6.8125 L 2.296875 -6.8125 C 2.109375 -6.8125 2.015625 -6.8125 2.015625 -6.609375 C 2.015625 -6.5 2.109375 -6.5 2.296875 -6.5 C 2.34375 -6.5 2.96875 -6.5 2.96875 -6.40625 L 1.640625 -1.0625 C 1.53125 -0.65625 1.359375 -0.34375 0.5625 -0.3125 C 0.5 -0.3125 0.390625 -0.296875 0.390625 -0.109375 C 0.390625 -0.046875 0.4375 0 0.515625 0 C 0.84375 0 1.1875 -0.03125 1.515625 -0.03125 C 1.859375 -0.03125 2.21875 0 2.546875 0 C 2.59375 0 2.71875 0 2.71875 -0.203125 C 2.71875 -0.296875 2.625 -0.3125 2.515625 -0.3125 C 1.9375 -0.328125 1.859375 -0.546875 1.859375 -0.75 C 1.859375 -0.8125 1.875 -0.875 1.90625 -0.984375 L 3.21875 -6.234375 C 3.265625 -6.1875 3.265625 -6.15625 3.3125 -6.0625 L 5.796875 -0.1875 C 5.859375 -0.015625 5.890625 0 5.984375 0 C 6.09375 0 6.09375 -0.03125 6.140625 -0.203125 Z M 7.53125 -5.765625 "/>
</symbol>
</g>
</defs>
<g id="surface1">
<path style="fill:none;stroke-width:0.99628;stroke-linecap:butt;stroke-linejoin:miter;stroke:rgb(0%,0%,0%);stroke-opacity:1;stroke-miterlimit:10;" d="M 90.707969 0.00034375 C 90.707969 50.098 50.098594 90.711281 0.0009375 90.711281 C -50.096719 90.711281 -90.71 50.098 -90.71 0.00034375 C -90.71 -50.097313 -50.096719 -90.710594 0.0009375 -90.710594 C 50.098594 -90.710594 90.707969 -50.097313 90.707969 0.00034375 Z M 90.707969 0.00034375 " transform="matrix(1,0,0,-1,216.21,109.223)"/>
<path style="fill:none;stroke-width:0.3985;stroke-linecap:butt;stroke-linejoin:miter;stroke:rgb(0%,0%,100%);stroke-opacity:1;stroke-miterlimit:10;" d="M -148.588906 -130.577781 C -91.127969 -171.609031 21.9775 -181.581688 104.043906 -152.851219 C 186.106406 -124.12075 206.051719 -67.566063 148.590781 -26.534813 C 91.125938 14.496437 -21.979531 24.469094 -104.042031 -4.261375 C -186.108437 -32.991844 -206.049844 -89.546531 -148.588906 -130.577781 Z M -148.588906 -130.577781 " transform="matrix(1,0,0,-1,216.21,109.223)"/>
<path style="fill:none;stroke-width:0.3985;stroke-linecap:butt;stroke-linejoin:miter;stroke:rgb(100%,0%,0%);stroke-opacity:1;stroke-dasharray:2.98883,2.98883;stroke-miterlimit:10;" d="M 0.0009375 78.547219 C -41.030312 64.180031 -74.295937 17.371437 -74.295937 -26.011375 C -74.295937 -69.390281 -41.030312 -92.909813 0.0009375 -78.546531 C 41.032188 -64.179344 74.293906 -17.37075 74.293906 26.012062 C 74.293906 69.390969 41.032188 92.9105 0.0009375 78.547219 Z M 0.0009375 78.547219 " transform="matrix(1,0,0,-1,216.21,109.223)"/>
<path style="fill:none;stroke-width:0.3985;stroke-linecap:butt;stroke-linejoin:miter;stroke:rgb(0%,0%,0%);stroke-opacity:1;stroke-dasharray:2.98883,2.98883;stroke-miterlimit:10;" d="M 0.0009375 -78.546531 L 0.0009375 78.547219 " transform="matrix(1,0,0,-1,216.21,109.223)"/>
<path style="fill:none;stroke-width:0.3985;stroke-linecap:butt;stroke-linejoin:miter;stroke:rgb(0%,0%,100%);stroke-opacity:1;stroke-dasharray:2.98883,2.98883;stroke-miterlimit:10;" d="M -74.295937 -26.011375 C -45.561562 -46.527 10.989219 -51.511375 52.020469 -37.148094 C 93.051719 -22.780906 103.024375 5.496437 74.293906 26.012062 C 45.563438 46.527687 -10.987344 51.512062 -52.0225 37.148781 C -93.05375 22.781594 -103.026406 -5.49575 -74.295937 -26.011375 Z M -74.295937 -26.011375 " transform="matrix(1,0,0,-1,216.21,109.223)"/>
<path style="fill:none;stroke-width:0.3985;stroke-linecap:butt;stroke-linejoin:miter;stroke:rgb(0%,0%,0%);stroke-opacity:1;stroke-dasharray:2.98883,2.98883;stroke-miterlimit:10;" d="M -52.0225 37.148781 L 52.020469 -37.148094 " transform="matrix(1,0,0,-1,216.21,109.223)"/>
<path style="fill:none;stroke-width:0.3985;stroke-linecap:butt;stroke-linejoin:miter;stroke:rgb(0%,0%,0%);stroke-opacity:1;stroke-dasharray:2.98883,2.98883;stroke-miterlimit:10;" d="M 74.293906 26.012062 L -74.295937 -26.011375 " transform="matrix(1,0,0,-1,216.21,109.223)"/>
<path style="fill:none;stroke-width:0.3985;stroke-linecap:butt;stroke-linejoin:miter;stroke:rgb(0%,100%,0%);stroke-opacity:1;stroke-dasharray:2.98883,2.98883;stroke-miterlimit:10;" d="M 0.0009375 78.547219 C 28.731406 58.031594 52.020469 6.234719 52.020469 -37.148094 C 52.020469 -80.527 28.731406 -99.062156 0.0009375 -78.546531 C -28.729531 -58.030906 -52.0225 -6.234031 -52.0225 37.148781 C -52.0225 80.527687 -28.729531 99.062844 0.0009375 78.547219 Z M 0.0009375 78.547219 " transform="matrix(1,0,0,-1,216.21,109.223)"/>
<path style="fill-rule:nonzero;fill:rgb(0%,0%,0%);fill-opacity:1;stroke-width:0.79701;stroke-linecap:butt;stroke-linejoin:miter;stroke:rgb(0%,0%,0%);stroke-opacity:1;stroke-miterlimit:10;" d="M 1.911094 0.00034375 C 1.911094 1.055031 1.055625 1.914406 0.0009375 1.914406 C -1.057656 1.914406 -1.913125 1.055031 -1.913125 0.00034375 C -1.913125 -1.05825 -1.057656 -1.913719 0.0009375 -1.913719 C 1.055625 -1.913719 1.911094 -1.05825 1.911094 0.00034375 Z M 1.911094 0.00034375 " transform="matrix(1,0,0,-1,216.21,109.223)"/>
<path style="fill-rule:nonzero;fill:rgb(0%,0%,0%);fill-opacity:1;stroke-width:0.79701;stroke-linecap:butt;stroke-linejoin:miter;stroke:rgb(0%,0%,0%);stroke-opacity:1;stroke-miterlimit:10;" d="M 0.957969 78.558937 C 0.957969 79.086281 0.528281 79.512062 0.0009375 79.512062 C -0.526406 79.512062 -0.956094 79.086281 -0.956094 78.558937 C -0.956094 78.027687 -0.526406 77.601906 0.0009375 77.601906 C 0.528281 77.601906 0.957969 78.027687 0.957969 78.558937 Z M 0.957969 78.558937 " transform="matrix(1,0,0,-1,216.21,109.223)"/>
<g style="fill:rgb(0%,0%,0%);fill-opacity:1;">
  <use xlink:href="#glyph0-1" x="203.4" y="34.071"/>
</g>
<path style="fill-rule:nonzero;fill:rgb(0%,0%,0%);fill-opacity:1;stroke-width:0.79701;stroke-linecap:butt;stroke-linejoin:miter;stroke:rgb(0%,0%,0%);stroke-opacity:1;stroke-miterlimit:10;" d="M 52.985313 -37.152 C 52.985313 -36.624656 52.555625 -36.194969 52.028281 -36.194969 C 51.500938 -36.194969 51.07125 -36.624656 51.07125 -37.152 C 51.07125 -37.679344 51.500938 -38.109031 52.028281 -38.109031 C 52.555625 -38.109031 52.985313 -37.679344 52.985313 -37.152 Z M 52.985313 -37.152 " transform="matrix(1,0,0,-1,216.21,109.223)"/>
<path style="fill-rule:nonzero;fill:rgb(0%,0%,0%);fill-opacity:1;stroke-width:0.79701;stroke-linecap:butt;stroke-linejoin:miter;stroke:rgb(0%,0%,0%);stroke-opacity:1;stroke-miterlimit:10;" d="M -73.346719 -26.015281 C -73.346719 -25.487938 -73.776406 -25.05825 -74.30375 -25.05825 C -74.835 -25.05825 -75.260781 -25.487938 -75.260781 -26.015281 C -75.260781 -26.542625 -74.835 -26.972313 -74.30375 -26.972313 C -73.776406 -26.972313 -73.346719 -26.542625 -73.346719 -26.015281 Z M -73.346719 -26.015281 " transform="matrix(1,0,0,-1,216.21,109.223)"/>
<path style="fill:none;stroke-width:0.3985;stroke-linecap:butt;stroke-linejoin:miter;stroke:rgb(0%,100%,0%);stroke-opacity:1;stroke-dasharray:2.98883,2.98883;stroke-miterlimit:10;" d="M 0.0009375 78.570656 L 104.059531 -152.862938 " transform="matrix(1,0,0,-1,216.21,109.223)"/>
<path style="fill:none;stroke-width:0.3985;stroke-linecap:butt;stroke-linejoin:miter;stroke:rgb(100%,0%,0%);stroke-opacity:1;stroke-dasharray:2.98883,2.98883;stroke-miterlimit:10;" d="M 0.0009375 78.570656 L -148.608437 -130.585594 " transform="matrix(1,0,0,-1,216.21,109.223)"/>
<path style="fill:none;stroke-width:0.3985;stroke-linecap:butt;stroke-linejoin:miter;stroke:rgb(0%,100%,0%);stroke-opacity:1;stroke-dasharray:2.98883,2.98883;stroke-miterlimit:10;" d="M -104.057656 -4.253563 L 104.059531 -152.862938 " transform="matrix(1,0,0,-1,216.21,109.223)"/>
<path style="fill:none;stroke-width:0.3985;stroke-linecap:butt;stroke-linejoin:miter;stroke:rgb(100%,0%,0%);stroke-opacity:1;stroke-dasharray:2.98883,2.98883;stroke-miterlimit:10;" d="M 148.610313 -26.527 L -148.608437 -130.585594 " transform="matrix(1,0,0,-1,216.21,109.223)"/>
<path style="fill-rule:nonzero;fill:rgb(0%,0%,0%);fill-opacity:1;stroke-width:0.79701;stroke-linecap:butt;stroke-linejoin:miter;stroke:rgb(0%,0%,0%);stroke-opacity:1;stroke-miterlimit:10;" d="M 105.016563 -152.862938 C 105.016563 -152.335594 104.586875 -151.905906 104.059531 -151.905906 C 103.528281 -151.905906 103.1025 -152.335594 103.1025 -152.862938 C 103.1025 -153.390281 103.528281 -153.819969 104.059531 -153.819969 C 104.586875 -153.819969 105.016563 -153.390281 105.016563 -152.862938 Z M 105.016563 -152.862938 " transform="matrix(1,0,0,-1,216.21,109.223)"/>
<path style="fill-rule:nonzero;fill:rgb(0%,0%,0%);fill-opacity:1;stroke-width:0.79701;stroke-linecap:butt;stroke-linejoin:miter;stroke:rgb(0%,0%,0%);stroke-opacity:1;stroke-miterlimit:10;" d="M -103.100625 -4.253563 C -103.100625 -3.722313 -103.530312 -3.296531 -104.057656 -3.296531 C -104.585 -3.296531 -105.014687 -3.722313 -105.014687 -4.253563 C -105.014687 -4.780906 -104.585 -5.206688 -104.057656 -5.206688 C -103.530312 -5.206688 -103.100625 -4.780906 -103.100625 -4.253563 Z M -103.100625 -4.253563 " transform="matrix(1,0,0,-1,216.21,109.223)"/>
<path style="fill-rule:nonzero;fill:rgb(0%,0%,0%);fill-opacity:1;stroke-width:0.79701;stroke-linecap:butt;stroke-linejoin:miter;stroke:rgb(0%,0%,0%);stroke-opacity:1;stroke-miterlimit:10;" d="M -147.655312 -130.585594 C -147.655312 -130.05825 -148.081094 -129.628563 -148.608437 -129.628563 C -149.139687 -129.628563 -149.565469 -130.05825 -149.565469 -130.585594 C -149.565469 -131.112938 -149.139687 -131.542625 -148.608437 -131.542625 C -148.081094 -131.542625 -147.655312 -131.112938 -147.655312 -130.585594 Z M -147.655312 -130.585594 " transform="matrix(1,0,0,-1,216.21,109.223)"/>
<path style="fill-rule:nonzero;fill:rgb(0%,0%,0%);fill-opacity:1;stroke-width:0.79701;stroke-linecap:butt;stroke-linejoin:miter;stroke:rgb(0%,0%,0%);stroke-opacity:1;stroke-miterlimit:10;" d="M 149.567344 -26.527 C 149.567344 -25.999656 149.137656 -25.569969 148.610313 -25.569969 C 148.082969 -25.569969 147.653281 -25.999656 147.653281 -26.527 C 147.653281 -27.054344 148.082969 -27.484031 148.610313 -27.484031 C 149.137656 -27.484031 149.567344 -27.054344 149.567344 -26.527 Z M 149.567344 -26.527 " transform="matrix(1,0,0,-1,216.21,109.223)"/>
</g>
</svg>
