<?xml version="1.0" encoding="UTF-8"?>
<svg xmlns="http://www.w3.org/2000/svg" xmlns:xlink="http://www.w3.org/1999/xlink" width="305.382pt" height="305.914pt" viewBox="0 0 305.382 305.914" version="1.1">
<defs>
<g>
<symbol overflow="visible" id="glyph0-0">
<path style="stroke:none;" d=""/>
</symbol>
<symbol overflow="visible" id="glyph0-1">
<path style="stroke:none;" d="M 3.328125 -3.015625 C 3.390625 -3.265625 3.625 -4.1875 4.3125 -4.1875 C 4.359375 -4.1875 4.609375 -4.1875 4.8125 -4.0625 C 4.53125 -4 4.34375 -3.765625 4.34375 -3.515625 C 4.34375 -3.359375 4.453125 -3.171875 4.71875 -3.171875 C 4.9375 -3.171875 5.25 -3.34375 5.25 -3.75 C 5.25 -4.265625 4.671875 -4.40625 4.328125 -4.40625 C 3.75 -4.40625 3.40625 -3.875 3.28125 -3.65625 C 3.03125 -4.3125 2.5 -4.40625 2.203125 -4.40625 C 1.171875 -4.40625 0.59375 -3.125 0.59375 -2.875 C 0.59375 -2.765625 0.703125 -2.765625 0.71875 -2.765625 C 0.796875 -2.765625 0.828125 -2.796875 0.84375 -2.875 C 1.1875 -3.9375 1.84375 -4.1875 2.1875 -4.1875 C 2.375 -4.1875 2.71875 -4.09375 2.71875 -3.515625 C 2.71875 -3.203125 2.546875 -2.546875 2.1875 -1.140625 C 2.03125 -0.53125 1.671875 -0.109375 1.234375 -0.109375 C 1.171875 -0.109375 0.953125 -0.109375 0.734375 -0.234375 C 0.984375 -0.296875 1.203125 -0.5 1.203125 -0.78125 C 1.203125 -1.046875 0.984375 -1.125 0.84375 -1.125 C 0.53125 -1.125 0.296875 -0.875 0.296875 -0.546875 C 0.296875 -0.09375 0.78125 0.109375 1.21875 0.109375 C 1.890625 0.109375 2.25 -0.59375 2.265625 -0.640625 C 2.390625 -0.28125 2.75 0.109375 3.34375 0.109375 C 4.375 0.109375 4.9375 -1.171875 4.9375 -1.421875 C 4.9375 -1.53125 4.859375 -1.53125 4.828125 -1.53125 C 4.734375 -1.53125 4.71875 -1.484375 4.6875 -1.421875 C 4.359375 -0.34375 3.6875 -0.109375 3.375 -0.109375 C 2.984375 -0.109375 2.828125 -0.421875 2.828125 -0.765625 C 2.828125 -0.984375 2.875 -1.203125 2.984375 -1.640625 Z M 3.328125 -3.015625 "/>
</symbol>
<symbol overflow="visible" id="glyph0-2">
<path style="stroke:none;" d="M 4.84375 -3.796875 C 4.890625 -3.9375 4.890625 -3.953125 4.890625 -4.03125 C 4.890625 -4.203125 4.75 -4.296875 4.59375 -4.296875 C 4.5 -4.296875 4.34375 -4.234375 4.25 -4.09375 C 4.234375 -4.03125 4.140625 -3.734375 4.109375 -3.546875 C 4.03125 -3.296875 3.96875 -3.015625 3.90625 -2.75 L 3.453125 -0.953125 C 3.421875 -0.8125 2.984375 -0.109375 2.328125 -0.109375 C 1.828125 -0.109375 1.71875 -0.546875 1.71875 -0.921875 C 1.71875 -1.375 1.890625 -2 2.21875 -2.875 C 2.375 -3.28125 2.421875 -3.390625 2.421875 -3.59375 C 2.421875 -4.03125 2.109375 -4.40625 1.609375 -4.40625 C 0.65625 -4.40625 0.296875 -2.953125 0.296875 -2.875 C 0.296875 -2.765625 0.390625 -2.765625 0.40625 -2.765625 C 0.515625 -2.765625 0.515625 -2.796875 0.5625 -2.953125 C 0.84375 -3.890625 1.234375 -4.1875 1.578125 -4.1875 C 1.65625 -4.1875 1.828125 -4.1875 1.828125 -3.875 C 1.828125 -3.625 1.71875 -3.359375 1.65625 -3.171875 C 1.25 -2.109375 1.078125 -1.546875 1.078125 -1.078125 C 1.078125 -0.1875 1.703125 0.109375 2.296875 0.109375 C 2.6875 0.109375 3.015625 -0.0625 3.296875 -0.34375 C 3.171875 0.171875 3.046875 0.671875 2.65625 1.203125 C 2.390625 1.53125 2.015625 1.828125 1.5625 1.828125 C 1.421875 1.828125 0.96875 1.796875 0.796875 1.40625 C 0.953125 1.40625 1.09375 1.40625 1.21875 1.28125 C 1.328125 1.203125 1.421875 1.0625 1.421875 0.875 C 1.421875 0.5625 1.15625 0.53125 1.0625 0.53125 C 0.828125 0.53125 0.5 0.6875 0.5 1.171875 C 0.5 1.671875 0.9375 2.046875 1.5625 2.046875 C 2.578125 2.046875 3.609375 1.140625 3.890625 0.015625 Z M 4.84375 -3.796875 "/>
</symbol>
</g>
</defs>
<g id="surface1">
<path style="fill:none;stroke-width:0.99628;stroke-linecap:butt;stroke-linejoin:miter;stroke:rgb(0%,0%,0%);stroke-opacity:1;stroke-miterlimit:10;" d="M 102.047313 0.000375 C 102.047313 56.35975 56.359813 102.04725 0.0004375 102.04725 C -56.358937 102.04725 -102.046438 56.35975 -102.046438 0.000375 C -102.046438 -56.359 -56.358937 -102.0465 0.0004375 -102.0465 C 56.359813 -102.0465 102.047313 -56.359 102.047313 0.000375 Z M 102.047313 0.000375 " transform="matrix(1,0,0,-1,146.523,159.391)"/>
<path style="fill:none;stroke-width:0.99628;stroke-linecap:butt;stroke-linejoin:miter;stroke:rgb(50%,50%,50%);stroke-opacity:1;stroke-miterlimit:10;" d="M 101.660594 8.894906 L 100.500438 17.719125 " transform="matrix(1,0,0,-1,146.523,159.391)"/>
<path style="fill:none;stroke-width:0.99628;stroke-linecap:butt;stroke-linejoin:miter;stroke:rgb(50%,50%,50%);stroke-opacity:1;stroke-miterlimit:10;" d="M 100.500438 17.719125 L 95.894969 34.902719 " transform="matrix(1,0,0,-1,146.523,159.391)"/>
<path style="fill:none;stroke-width:0.99628;stroke-linecap:butt;stroke-linejoin:miter;stroke:rgb(50%,50%,50%);stroke-opacity:1;stroke-miterlimit:10;" d="M 98.57075 26.410531 L 88.375438 51.023812 " transform="matrix(1,0,0,-1,146.523,159.391)"/>
<path style="fill:none;stroke-width:0.99628;stroke-linecap:butt;stroke-linejoin:miter;stroke:rgb(50%,50%,50%);stroke-opacity:1;stroke-miterlimit:10;" d="M 95.894969 34.902719 L 78.172313 65.594125 " transform="matrix(1,0,0,-1,146.523,159.391)"/>
<path style="fill:none;stroke-width:0.99628;stroke-linecap:butt;stroke-linejoin:miter;stroke:rgb(50%,50%,50%);stroke-opacity:1;stroke-miterlimit:10;" d="M 92.488719 43.129281 L 65.594188 78.17225 " transform="matrix(1,0,0,-1,146.523,159.391)"/>
<path style="fill:none;stroke-width:0.99628;stroke-linecap:butt;stroke-linejoin:miter;stroke:rgb(50%,50%,50%);stroke-opacity:1;stroke-miterlimit:10;" d="M 88.375438 51.023812 L 51.023875 88.375375 " transform="matrix(1,0,0,-1,146.523,159.391)"/>
<path style="fill:none;stroke-width:0.99628;stroke-linecap:butt;stroke-linejoin:miter;stroke:rgb(50%,50%,50%);stroke-opacity:1;stroke-miterlimit:10;" d="M 83.594188 58.531625 L 34.902781 95.894906 " transform="matrix(1,0,0,-1,146.523,159.391)"/>
<path style="fill:none;stroke-width:0.99628;stroke-linecap:butt;stroke-linejoin:miter;stroke:rgb(50%,50%,50%);stroke-opacity:1;stroke-miterlimit:10;" d="M 78.172313 65.594125 L 17.719188 100.500375 " transform="matrix(1,0,0,-1,146.523,159.391)"/>
<path style="fill:none;stroke-width:0.99628;stroke-linecap:butt;stroke-linejoin:miter;stroke:rgb(50%,50%,50%);stroke-opacity:1;stroke-miterlimit:10;" d="M 72.160594 72.160531 L 0.0004375 102.04725 " transform="matrix(1,0,0,-1,146.523,159.391)"/>
<path style="fill:none;stroke-width:0.99628;stroke-linecap:butt;stroke-linejoin:miter;stroke:rgb(50%,50%,50%);stroke-opacity:1;stroke-miterlimit:10;" d="M 65.594188 78.17225 L -17.718312 100.500375 " transform="matrix(1,0,0,-1,146.523,159.391)"/>
<path style="fill:none;stroke-width:0.99628;stroke-linecap:butt;stroke-linejoin:miter;stroke:rgb(50%,50%,50%);stroke-opacity:1;stroke-miterlimit:10;" d="M 58.531688 83.594125 L -34.901906 95.894906 " transform="matrix(1,0,0,-1,146.523,159.391)"/>
<path style="fill:none;stroke-width:0.99628;stroke-linecap:butt;stroke-linejoin:miter;stroke:rgb(50%,50%,50%);stroke-opacity:1;stroke-miterlimit:10;" d="M 51.023875 88.375375 L -51.023 88.375375 " transform="matrix(1,0,0,-1,146.523,159.391)"/>
<path style="fill:none;stroke-width:0.99628;stroke-linecap:butt;stroke-linejoin:miter;stroke:rgb(50%,50%,50%);stroke-opacity:1;stroke-miterlimit:10;" d="M 43.129344 92.488656 L -65.597219 78.17225 " transform="matrix(1,0,0,-1,146.523,159.391)"/>
<path style="fill:none;stroke-width:0.99628;stroke-linecap:butt;stroke-linejoin:miter;stroke:rgb(50%,50%,50%);stroke-opacity:1;stroke-miterlimit:10;" d="M 34.902781 95.894906 L -78.171437 65.594125 " transform="matrix(1,0,0,-1,146.523,159.391)"/>
<path style="fill:none;stroke-width:0.99628;stroke-linecap:butt;stroke-linejoin:miter;stroke:rgb(50%,50%,50%);stroke-opacity:1;stroke-miterlimit:10;" d="M 26.410594 98.570687 L -88.378469 51.023812 " transform="matrix(1,0,0,-1,146.523,159.391)"/>
<path style="fill:none;stroke-width:0.99628;stroke-linecap:butt;stroke-linejoin:miter;stroke:rgb(50%,50%,50%);stroke-opacity:1;stroke-miterlimit:10;" d="M 17.719188 100.500375 L -95.894094 34.902719 " transform="matrix(1,0,0,-1,146.523,159.391)"/>
<path style="fill:none;stroke-width:0.99628;stroke-linecap:butt;stroke-linejoin:miter;stroke:rgb(50%,50%,50%);stroke-opacity:1;stroke-miterlimit:10;" d="M 8.894969 101.660531 L -100.499563 17.719125 " transform="matrix(1,0,0,-1,146.523,159.391)"/>
<path style="fill:none;stroke-width:0.99628;stroke-linecap:butt;stroke-linejoin:miter;stroke:rgb(50%,50%,50%);stroke-opacity:1;stroke-miterlimit:10;" d="M 0.0004375 102.04725 L -102.046438 0.000375 " transform="matrix(1,0,0,-1,146.523,159.391)"/>
<path style="fill:none;stroke-width:0.99628;stroke-linecap:butt;stroke-linejoin:miter;stroke:rgb(50%,50%,50%);stroke-opacity:1;stroke-miterlimit:10;" d="M -8.894094 101.660531 L -100.499563 -17.718375 " transform="matrix(1,0,0,-1,146.523,159.391)"/>
<path style="fill:none;stroke-width:0.99628;stroke-linecap:butt;stroke-linejoin:miter;stroke:rgb(50%,50%,50%);stroke-opacity:1;stroke-miterlimit:10;" d="M -17.718312 100.500375 L -95.894094 -34.901969 " transform="matrix(1,0,0,-1,146.523,159.391)"/>
<path style="fill:none;stroke-width:0.99628;stroke-linecap:butt;stroke-linejoin:miter;stroke:rgb(50%,50%,50%);stroke-opacity:1;stroke-miterlimit:10;" d="M -26.413625 98.570687 L -88.378469 -51.023063 " transform="matrix(1,0,0,-1,146.523,159.391)"/>
<path style="fill:none;stroke-width:0.99628;stroke-linecap:butt;stroke-linejoin:miter;stroke:rgb(50%,50%,50%);stroke-opacity:1;stroke-miterlimit:10;" d="M -34.901906 95.894906 L -78.171437 -65.597281 " transform="matrix(1,0,0,-1,146.523,159.391)"/>
<path style="fill:none;stroke-width:0.99628;stroke-linecap:butt;stroke-linejoin:miter;stroke:rgb(50%,50%,50%);stroke-opacity:1;stroke-miterlimit:10;" d="M -43.128469 92.488656 L -65.597219 -78.1715 " transform="matrix(1,0,0,-1,146.523,159.391)"/>
<path style="fill:none;stroke-width:0.99628;stroke-linecap:butt;stroke-linejoin:miter;stroke:rgb(50%,50%,50%);stroke-opacity:1;stroke-miterlimit:10;" d="M -51.023 88.375375 L -51.023 -88.378531 " transform="matrix(1,0,0,-1,146.523,159.391)"/>
<path style="fill:none;stroke-width:0.99628;stroke-linecap:butt;stroke-linejoin:miter;stroke:rgb(50%,50%,50%);stroke-opacity:1;stroke-miterlimit:10;" d="M -58.530812 83.594125 L -34.901906 -95.894156 " transform="matrix(1,0,0,-1,146.523,159.391)"/>
<path style="fill:none;stroke-width:0.99628;stroke-linecap:butt;stroke-linejoin:miter;stroke:rgb(50%,50%,50%);stroke-opacity:1;stroke-miterlimit:10;" d="M -65.597219 78.17225 L -17.718312 -100.499625 " transform="matrix(1,0,0,-1,146.523,159.391)"/>
<path style="fill:none;stroke-width:0.99628;stroke-linecap:butt;stroke-linejoin:miter;stroke:rgb(50%,50%,50%);stroke-opacity:1;stroke-miterlimit:10;" d="M -72.159719 72.160531 L 0.0004375 -102.0465 " transform="matrix(1,0,0,-1,146.523,159.391)"/>
<path style="fill:none;stroke-width:0.99628;stroke-linecap:butt;stroke-linejoin:miter;stroke:rgb(50%,50%,50%);stroke-opacity:1;stroke-miterlimit:10;" d="M -78.171437 65.594125 L 17.719188 -100.499625 " transform="matrix(1,0,0,-1,146.523,159.391)"/>
<path style="fill:none;stroke-width:0.99628;stroke-linecap:butt;stroke-linejoin:miter;stroke:rgb(50%,50%,50%);stroke-opacity:1;stroke-miterlimit:10;" d="M -83.593312 58.531625 L 34.902781 -95.894156 " transform="matrix(1,0,0,-1,146.523,159.391)"/>
<path style="fill:none;stroke-width:0.99628;stroke-linecap:butt;stroke-linejoin:miter;stroke:rgb(50%,50%,50%);stroke-opacity:1;stroke-miterlimit:10;" d="M -88.378469 51.023812 L 51.023875 -88.378531 " transform="matrix(1,0,0,-1,146.523,159.391)"/>
<path style="fill:none;stroke-width:0.99628;stroke-linecap:butt;stroke-linejoin:miter;stroke:rgb(50%,50%,50%);stroke-opacity:1;stroke-miterlimit:10;" d="M -92.487844 43.129281 L 65.594188 -78.1715 " transform="matrix(1,0,0,-1,146.523,159.391)"/>
<path style="fill:none;stroke-width:0.99628;stroke-linecap:butt;stroke-linejoin:miter;stroke:rgb(50%,50%,50%);stroke-opacity:1;stroke-miterlimit:10;" d="M -95.894094 34.902719 L 78.172313 -65.597281 " transform="matrix(1,0,0,-1,146.523,159.391)"/>
<path style="fill:none;stroke-width:0.99628;stroke-linecap:butt;stroke-linejoin:miter;stroke:rgb(50%,50%,50%);stroke-opacity:1;stroke-miterlimit:10;" d="M -98.569875 26.410531 L 88.375438 -51.023063 " transform="matrix(1,0,0,-1,146.523,159.391)"/>
<path style="fill:none;stroke-width:0.99628;stroke-linecap:butt;stroke-linejoin:miter;stroke:rgb(50%,50%,50%);stroke-opacity:1;stroke-miterlimit:10;" d="M -100.499563 17.719125 L 95.894969 -34.901969 " transform="matrix(1,0,0,-1,146.523,159.391)"/>
<path style="fill:none;stroke-width:0.99628;stroke-linecap:butt;stroke-linejoin:miter;stroke:rgb(50%,50%,50%);stroke-opacity:1;stroke-miterlimit:10;" d="M -101.659719 8.894906 L 100.500438 -17.718375 " transform="matrix(1,0,0,-1,146.523,159.391)"/>
<path style="fill:none;stroke-width:0.99628;stroke-linecap:butt;stroke-linejoin:miter;stroke:rgb(50%,50%,50%);stroke-opacity:1;stroke-miterlimit:10;" d="M -102.046438 0.000375 L 102.047313 0.000375 " transform="matrix(1,0,0,-1,146.523,159.391)"/>
<path style="fill:none;stroke-width:0.99628;stroke-linecap:butt;stroke-linejoin:miter;stroke:rgb(50%,50%,50%);stroke-opacity:1;stroke-miterlimit:10;" d="M -101.659719 -8.894156 L 100.500438 17.719125 " transform="matrix(1,0,0,-1,146.523,159.391)"/>
<path style="fill:none;stroke-width:0.99628;stroke-linecap:butt;stroke-linejoin:miter;stroke:rgb(50%,50%,50%);stroke-opacity:1;stroke-miterlimit:10;" d="M -100.499563 -17.718375 L 95.894969 34.902719 " transform="matrix(1,0,0,-1,146.523,159.391)"/>
<path style="fill:none;stroke-width:0.99628;stroke-linecap:butt;stroke-linejoin:miter;stroke:rgb(50%,50%,50%);stroke-opacity:1;stroke-miterlimit:10;" d="M -98.569875 -26.413688 L 88.375438 51.023812 " transform="matrix(1,0,0,-1,146.523,159.391)"/>
<path style="fill:none;stroke-width:0.99628;stroke-linecap:butt;stroke-linejoin:miter;stroke:rgb(50%,50%,50%);stroke-opacity:1;stroke-miterlimit:10;" d="M -95.894094 -34.901969 L 78.172313 65.594125 " transform="matrix(1,0,0,-1,146.523,159.391)"/>
<path style="fill:none;stroke-width:0.99628;stroke-linecap:butt;stroke-linejoin:miter;stroke:rgb(50%,50%,50%);stroke-opacity:1;stroke-miterlimit:10;" d="M -92.487844 -43.128531 L 65.594188 78.17225 " transform="matrix(1,0,0,-1,146.523,159.391)"/>
<path style="fill:none;stroke-width:0.99628;stroke-linecap:butt;stroke-linejoin:miter;stroke:rgb(50%,50%,50%);stroke-opacity:1;stroke-miterlimit:10;" d="M -88.378469 -51.023063 L 51.023875 88.375375 " transform="matrix(1,0,0,-1,146.523,159.391)"/>
<path style="fill:none;stroke-width:0.99628;stroke-linecap:butt;stroke-linejoin:miter;stroke:rgb(50%,50%,50%);stroke-opacity:1;stroke-miterlimit:10;" d="M -83.593312 -58.530875 L 34.902781 95.894906 " transform="matrix(1,0,0,-1,146.523,159.391)"/>
<path style="fill:none;stroke-width:0.99628;stroke-linecap:butt;stroke-linejoin:miter;stroke:rgb(50%,50%,50%);stroke-opacity:1;stroke-miterlimit:10;" d="M -78.171437 -65.597281 L 17.719188 100.500375 " transform="matrix(1,0,0,-1,146.523,159.391)"/>
<path style="fill:none;stroke-width:0.99628;stroke-linecap:butt;stroke-linejoin:miter;stroke:rgb(50%,50%,50%);stroke-opacity:1;stroke-miterlimit:10;" d="M -72.159719 -72.159781 L 0.0004375 102.04725 " transform="matrix(1,0,0,-1,146.523,159.391)"/>
<path style="fill:none;stroke-width:0.99628;stroke-linecap:butt;stroke-linejoin:miter;stroke:rgb(50%,50%,50%);stroke-opacity:1;stroke-miterlimit:10;" d="M -65.597219 -78.1715 L -17.718312 100.500375 " transform="matrix(1,0,0,-1,146.523,159.391)"/>
<path style="fill:none;stroke-width:0.99628;stroke-linecap:butt;stroke-linejoin:miter;stroke:rgb(50%,50%,50%);stroke-opacity:1;stroke-miterlimit:10;" d="M -58.530812 -83.593375 L -34.901906 95.894906 " transform="matrix(1,0,0,-1,146.523,159.391)"/>
<path style="fill:none;stroke-width:0.99628;stroke-linecap:butt;stroke-linejoin:miter;stroke:rgb(50%,50%,50%);stroke-opacity:1;stroke-miterlimit:10;" d="M -51.023 -88.378531 L -51.023 88.375375 " transform="matrix(1,0,0,-1,146.523,159.391)"/>
<path style="fill:none;stroke-width:0.99628;stroke-linecap:butt;stroke-linejoin:miter;stroke:rgb(50%,50%,50%);stroke-opacity:1;stroke-miterlimit:10;" d="M -43.128469 -92.487906 L -65.597219 78.17225 " transform="matrix(1,0,0,-1,146.523,159.391)"/>
<path style="fill:none;stroke-width:0.99628;stroke-linecap:butt;stroke-linejoin:miter;stroke:rgb(50%,50%,50%);stroke-opacity:1;stroke-miterlimit:10;" d="M -34.901906 -95.894156 L -78.171437 65.594125 " transform="matrix(1,0,0,-1,146.523,159.391)"/>
<path style="fill:none;stroke-width:0.99628;stroke-linecap:butt;stroke-linejoin:miter;stroke:rgb(50%,50%,50%);stroke-opacity:1;stroke-miterlimit:10;" d="M -26.413625 -98.569938 L -88.378469 51.023812 " transform="matrix(1,0,0,-1,146.523,159.391)"/>
<path style="fill:none;stroke-width:0.99628;stroke-linecap:butt;stroke-linejoin:miter;stroke:rgb(50%,50%,50%);stroke-opacity:1;stroke-miterlimit:10;" d="M -17.718312 -100.499625 L -95.894094 34.902719 " transform="matrix(1,0,0,-1,146.523,159.391)"/>
<path style="fill:none;stroke-width:0.99628;stroke-linecap:butt;stroke-linejoin:miter;stroke:rgb(50%,50%,50%);stroke-opacity:1;stroke-miterlimit:10;" d="M -8.894094 -101.659781 L -100.499563 17.719125 " transform="matrix(1,0,0,-1,146.523,159.391)"/>
<path style="fill:none;stroke-width:0.99628;stroke-linecap:butt;stroke-linejoin:miter;stroke:rgb(50%,50%,50%);stroke-opacity:1;stroke-miterlimit:10;" d="M 0.0004375 -102.0465 L -102.046438 0.000375 " transform="matrix(1,0,0,-1,146.523,159.391)"/>
<path style="fill:none;stroke-width:0.99628;stroke-linecap:butt;stroke-linejoin:miter;stroke:rgb(50%,50%,50%);stroke-opacity:1;stroke-miterlimit:10;" d="M 8.894969 -101.659781 L -100.499563 -17.718375 " transform="matrix(1,0,0,-1,146.523,159.391)"/>
<path style="fill:none;stroke-width:0.99628;stroke-linecap:butt;stroke-linejoin:miter;stroke:rgb(50%,50%,50%);stroke-opacity:1;stroke-miterlimit:10;" d="M 17.719188 -100.499625 L -95.894094 -34.901969 " transform="matrix(1,0,0,-1,146.523,159.391)"/>
<path style="fill:none;stroke-width:0.99628;stroke-linecap:butt;stroke-linejoin:miter;stroke:rgb(50%,50%,50%);stroke-opacity:1;stroke-miterlimit:10;" d="M 26.410594 -98.569938 L -88.378469 -51.023063 " transform="matrix(1,0,0,-1,146.523,159.391)"/>
<path style="fill:none;stroke-width:0.99628;stroke-linecap:butt;stroke-linejoin:miter;stroke:rgb(50%,50%,50%);stroke-opacity:1;stroke-miterlimit:10;" d="M 34.902781 -95.894156 L -78.171437 -65.597281 " transform="matrix(1,0,0,-1,146.523,159.391)"/>
<path style="fill:none;stroke-width:0.99628;stroke-linecap:butt;stroke-linejoin:miter;stroke:rgb(50%,50%,50%);stroke-opacity:1;stroke-miterlimit:10;" d="M 43.129344 -92.487906 L -65.597219 -78.1715 " transform="matrix(1,0,0,-1,146.523,159.391)"/>
<path style="fill:none;stroke-width:0.99628;stroke-linecap:butt;stroke-linejoin:miter;stroke:rgb(50%,50%,50%);stroke-opacity:1;stroke-miterlimit:10;" d="M 51.023875 -88.378531 L -51.023 -88.378531 " transform="matrix(1,0,0,-1,146.523,159.391)"/>
<path style="fill:none;stroke-width:0.99628;stroke-linecap:butt;stroke-linejoin:miter;stroke:rgb(50%,50%,50%);stroke-opacity:1;stroke-miterlimit:10;" d="M 58.531688 -83.593375 L -34.901906 -95.894156 " transform="matrix(1,0,0,-1,146.523,159.391)"/>
<path style="fill:none;stroke-width:0.99628;stroke-linecap:butt;stroke-linejoin:miter;stroke:rgb(50%,50%,50%);stroke-opacity:1;stroke-miterlimit:10;" d="M 65.594188 -78.1715 L -17.718312 -100.499625 " transform="matrix(1,0,0,-1,146.523,159.391)"/>
<path style="fill:none;stroke-width:0.99628;stroke-linecap:butt;stroke-linejoin:miter;stroke:rgb(50%,50%,50%);stroke-opacity:1;stroke-miterlimit:10;" d="M 72.160594 -72.159781 L 0.0004375 -102.0465 " transform="matrix(1,0,0,-1,146.523,159.391)"/>
<path style="fill:none;stroke-width:0.99628;stroke-linecap:butt;stroke-linejoin:miter;stroke:rgb(50%,50%,50%);stroke-opacity:1;stroke-miterlimit:10;" d="M 78.172313 -65.597281 L 17.719188 -100.499625 " transform="matrix(1,0,0,-1,146.523,159.391)"/>
<path style="fill:none;stroke-width:0.99628;stroke-linecap:butt;stroke-linejoin:miter;stroke:rgb(50%,50%,50%);stroke-opacity:1;stroke-miterlimit:10;" d="M 83.594188 -58.530875 L 34.902781 -95.894156 " transform="matrix(1,0,0,-1,146.523,159.391)"/>
<path style="fill:none;stroke-width:0.99628;stroke-linecap:butt;stroke-linejoin:miter;stroke:rgb(50%,50%,50%);stroke-opacity:1;stroke-miterlimit:10;" d="M 88.375438 -51.023063 L 51.023875 -88.378531 " transform="matrix(1,0,0,-1,146.523,159.391)"/>
<path style="fill:none;stroke-width:0.99628;stroke-linecap:butt;stroke-linejoin:miter;stroke:rgb(50%,50%,50%);stroke-opacity:1;stroke-miterlimit:10;" d="M 92.488719 -43.128531 L 65.594188 -78.1715 " transform="matrix(1,0,0,-1,146.523,159.391)"/>
<path style="fill:none;stroke-width:0.99628;stroke-linecap:butt;stroke-linejoin:miter;stroke:rgb(50%,50%,50%);stroke-opacity:1;stroke-miterlimit:10;" d="M 95.894969 -34.901969 L 78.172313 -65.597281 " transform="matrix(1,0,0,-1,146.523,159.391)"/>
<path style="fill:none;stroke-width:0.99628;stroke-linecap:butt;stroke-linejoin:miter;stroke:rgb(50%,50%,50%);stroke-opacity:1;stroke-miterlimit:10;" d="M 98.57075 -26.413688 L 88.375438 -51.023063 " transform="matrix(1,0,0,-1,146.523,159.391)"/>
<path style="fill:none;stroke-width:0.99628;stroke-linecap:butt;stroke-linejoin:miter;stroke:rgb(50%,50%,50%);stroke-opacity:1;stroke-miterlimit:10;" d="M 100.500438 -17.718375 L 95.894969 -34.901969 " transform="matrix(1,0,0,-1,146.523,159.391)"/>
<path style="fill:none;stroke-width:0.99628;stroke-linecap:butt;stroke-linejoin:miter;stroke:rgb(50%,50%,50%);stroke-opacity:1;stroke-miterlimit:10;" d="M 101.660594 -8.894156 L 100.500438 -17.718375 " transform="matrix(1,0,0,-1,146.523,159.391)"/>
<path style="fill:none;stroke-width:0.99628;stroke-linecap:butt;stroke-linejoin:miter;stroke:rgb(100%,0%,0%);stroke-opacity:1;stroke-miterlimit:10;" d="M 102.047313 0.000375 L 101.63325 8.621469 L 100.406688 17.152719 L 98.379344 25.516 L 95.574656 33.621469 L 92.023875 41.394906 L 87.773875 48.754281 L 82.871531 55.637094 L 77.38325 61.980844 L 71.359813 67.719125 L 64.879344 72.812875 L 58.019969 77.226937 L 50.852 80.92225 L 43.465281 83.879281 L 35.930125 86.094125 L 28.336375 87.558969 L 20.762156 88.281625 L 13.285594 88.285531 L 5.984813 87.586312 L -1.069875 86.230844 L -7.815969 84.250375 L -14.194875 81.699594 L -20.151906 78.633187 L -25.640187 75.101937 L -30.624562 71.183969 L -35.077687 66.941781 L -38.976125 62.441781 L -42.315969 57.754281 L -45.093312 52.949594 L -47.312062 48.098031 L -48.987844 43.262094 L -50.140187 38.504281 L -50.808156 33.887094 L -51.023 29.457406 L -50.823781 25.266 L -50.261281 21.351937 L -49.390187 17.746469 L -48.257375 14.473031 L -46.92925 11.555062 L -45.456594 8.996469 L -43.894094 6.801156 L -42.30425 4.965219 L -40.737844 3.465219 L -39.24175 2.289437 L -37.870656 1.402719 L -36.659719 0.777719 L -35.644094 0.367562 L -34.858937 0.133187 L -34.319875 0.0277187 L -34.050344 0.000375 L -34.319875 -0.0269688 L -34.858937 -0.132438 L -35.644094 -0.366813 L -36.655812 -0.776969 L -37.870656 -1.401969 L -39.24175 -2.288688 L -40.733937 -3.464469 L -42.30425 -4.964469 L -43.894094 -6.800406 L -45.456594 -8.995719 L -46.92925 -11.554313 L -48.257375 -14.472281 L -49.390187 -17.745719 L -50.261281 -21.351188 L -50.823781 -25.26525 L -51.023 -29.456656 L -50.808156 -33.882438 L -50.140187 -38.503531 L -48.987844 -43.261344 L -47.312062 -48.093375 L -45.093312 -52.948844 L -42.319875 -57.753531 L -38.980031 -62.441031 L -35.077687 -66.941031 L -30.624562 -71.183219 L -25.640187 -75.101188 L -20.151906 -78.632438 L -14.198781 -81.698844 L -7.819875 -84.249625 L -1.073781 -86.230094 L 5.984813 -87.589469 L 13.285594 -88.284781 L 20.75825 -88.284781 L 28.332469 -87.558219 L 35.926219 -86.093375 L 43.461375 -83.882438 L 50.852 -80.9215 L 58.019969 -77.230094 L 64.879344 -72.816031 L 71.355906 -67.722281 L 77.379344 -61.980094 L 82.871531 -55.64025 L 87.773875 -48.757438 L 92.023875 -41.394156 L 95.57075 -33.624625 L 98.379344 -25.519156 L 100.406688 -17.155875 L 101.63325 -8.620719 L 102.047313 -0.00353125 " transform="matrix(1,0,0,-1,146.523,159.391)"/>
<path style="fill:none;stroke-width:0.99628;stroke-linecap:butt;stroke-linejoin:miter;stroke:rgb(0%,0%,0%);stroke-opacity:1;stroke-miterlimit:10;" d="M -136.065969 0.000375 L 131.430125 0.000375 " transform="matrix(1,0,0,-1,146.523,159.391)"/>
<path style="fill-rule:nonzero;fill:rgb(0%,0%,0%);fill-opacity:1;stroke-width:0.99628;stroke-linecap:butt;stroke-linejoin:miter;stroke:rgb(0%,0%,0%);stroke-opacity:1;stroke-miterlimit:10;" d="M 6.052719 0.000375 L 1.607406 1.683969 L 3.087875 0.000375 L 1.607406 -1.683219 Z M 6.052719 0.000375 " transform="matrix(1,0,0,-1,275.11525,159.391)"/>
<g style="fill:rgb(0%,0%,0%);fill-opacity:1;">
  <use xlink:href="#glyph0-1" x="286.405" y="161.535"/>
</g>
<path style="fill:none;stroke-width:0.99628;stroke-linecap:butt;stroke-linejoin:miter;stroke:rgb(0%,0%,0%);stroke-opacity:1;stroke-miterlimit:10;" d="M 0.0004375 -136.066031 L 0.0004375 131.430062 " transform="matrix(1,0,0,-1,146.523,159.391)"/>
<path style="fill-rule:nonzero;fill:rgb(0%,0%,0%);fill-opacity:1;stroke-width:0.99628;stroke-linecap:butt;stroke-linejoin:miter;stroke:rgb(0%,0%,0%);stroke-opacity:1;stroke-miterlimit:10;" d="M 6.052656 -0.0004375 L 1.607344 1.683156 L 3.087812 -0.0004375 L 1.607344 -1.684031 Z M 6.052656 -0.0004375 " transform="matrix(0,-1,-1,0,146.523,30.79875)"/>
<g style="fill:rgb(0%,0%,0%);fill-opacity:1;">
  <use xlink:href="#glyph0-2" x="143.902" y="17.572"/>
</g>
</g>
</svg>
