<?xml version="1.0" encoding="UTF-8"?>
<svg xmlns="http://www.w3.org/2000/svg" xmlns:xlink="http://www.w3.org/1999/xlink" width="360.083pt" height="232.524pt" viewBox="0 0 360.083 232.524" version="1.1">
<defs>
<clipPath id="clip1">
  <path d="M 9.960938 179 L 350.121094 179 L 350.121094 181 L 9.960938 181 Z M 9.960938 179 "/>
</clipPath>
<clipPath id="clip2">
  <path d="M 179 9.960938 L 181 9.960938 L 181 222.5625 L 179 222.5625 Z M 179 9.960938 "/>
</clipPath>
<clipPath id="clip3">
  <path d="M 80 9.960938 L 280 9.960938 L 280 195 L 80 195 Z M 80 9.960938 "/>
</clipPath>
<clipPath id="clip4">
  <path d="M 136 9.960938 L 207 9.960938 L 207 222.5625 L 136 222.5625 Z M 136 9.960938 "/>
</clipPath>
<clipPath id="clip5">
  <path d="M 107 9.960938 L 221 9.960938 L 221 222.5625 L 107 222.5625 Z M 107 9.960938 "/>
</clipPath>
<clipPath id="clip6">
  <path d="M 78 9.960938 L 235 9.960938 L 235 222.5625 L 78 222.5625 Z M 78 9.960938 "/>
</clipPath>
<clipPath id="clip7">
  <path d="M 52 9.960938 L 251 9.960938 L 251 222.5625 L 52 222.5625 Z M 52 9.960938 "/>
</clipPath>
<clipPath id="clip8">
  <path d="M 27 9.960938 L 269 9.960938 L 269 222.5625 L 27 222.5625 Z M 27 9.960938 "/>
</clipPath>
<clipPath id="clip9">
  <path d="M 9.960938 9.960938 L 290 9.960938 L 290 222.5625 L 9.960938 222.5625 Z M 9.960938 9.960938 "/>
</clipPath>
<clipPath id="clip10">
  <path d="M 9.960938 9.960938 L 313 9.960938 L 313 222.5625 L 9.960938 222.5625 Z M 9.960938 9.960938 "/>
</clipPath>
<clipPath id="clip11">
  <path d="M 9.960938 9.960938 L 340 9.960938 L 340 222.5625 L 9.960938 222.5625 Z M 9.960938 9.960938 "/>
</clipPath>
<clipPath id="clip12">
  <path d="M 9.960938 9.960938 L 350.121094 9.960938 L 350.121094 222.5625 L 9.960938 222.5625 Z M 9.960938 9.960938 "/>
</clipPath>
<clipPath id="clip13">
  <path d="M 38 9.960938 L 350.121094 9.960938 L 350.121094 222.5625 L 38 222.5625 Z M 38 9.960938 "/>
</clipPath>
<clipPath id="clip14">
  <path d="M 77 9.960938 L 350.121094 9.960938 L 350.121094 222.5625 L 77 222.5625 Z M 77 9.960938 "/>
</clipPath>
<clipPath id="clip15">
  <path d="M 126 9.960938 L 350.121094 9.960938 L 350.121094 222.5625 L 126 222.5625 Z M 126 9.960938 "/>
</clipPath>
<clipPath id="clip16">
  <path d="M 183 9.960938 L 350.121094 9.960938 L 350.121094 222.5625 L 183 222.5625 Z M 183 9.960938 "/>
</clipPath>
<clipPath id="clip17">
  <path d="M 153 9.960938 L 224 9.960938 L 224 222.5625 L 153 222.5625 Z M 153 9.960938 "/>
</clipPath>
<clipPath id="clip18">
  <path d="M 139 9.960938 L 253 9.960938 L 253 222.5625 L 139 222.5625 Z M 139 9.960938 "/>
</clipPath>
<clipPath id="clip19">
  <path d="M 125 9.960938 L 282 9.960938 L 282 222.5625 L 125 222.5625 Z M 125 9.960938 "/>
</clipPath>
<clipPath id="clip20">
  <path d="M 109 9.960938 L 308 9.960938 L 308 222.5625 L 109 222.5625 Z M 109 9.960938 "/>
</clipPath>
<clipPath id="clip21">
  <path d="M 91 9.960938 L 333 9.960938 L 333 222.5625 L 91 222.5625 Z M 91 9.960938 "/>
</clipPath>
<clipPath id="clip22">
  <path d="M 71 9.960938 L 350.121094 9.960938 L 350.121094 222.5625 L 71 222.5625 Z M 71 9.960938 "/>
</clipPath>
<clipPath id="clip23">
  <path d="M 47 9.960938 L 350.121094 9.960938 L 350.121094 222.5625 L 47 222.5625 Z M 47 9.960938 "/>
</clipPath>
<clipPath id="clip24">
  <path d="M 20 9.960938 L 350.121094 9.960938 L 350.121094 222.5625 L 20 222.5625 Z M 20 9.960938 "/>
</clipPath>
<clipPath id="clip25">
  <path d="M 9.960938 9.960938 L 350.121094 9.960938 L 350.121094 222.5625 L 9.960938 222.5625 Z M 9.960938 9.960938 "/>
</clipPath>
<clipPath id="clip26">
  <path d="M 9.960938 9.960938 L 323 9.960938 L 323 222.5625 L 9.960938 222.5625 Z M 9.960938 9.960938 "/>
</clipPath>
<clipPath id="clip27">
  <path d="M 9.960938 9.960938 L 283 9.960938 L 283 222.5625 L 9.960938 222.5625 Z M 9.960938 9.960938 "/>
</clipPath>
<clipPath id="clip28">
  <path d="M 9.960938 9.960938 L 235 9.960938 L 235 222.5625 L 9.960938 222.5625 Z M 9.960938 9.960938 "/>
</clipPath>
<clipPath id="clip29">
  <path d="M 9.960938 9.960938 L 177 9.960938 L 177 222.5625 L 9.960938 222.5625 Z M 9.960938 9.960938 "/>
</clipPath>
<clipPath id="clip30">
  <path d="M 9.960938 9.960938 L 350.121094 9.960938 L 350.121094 173 L 9.960938 173 Z M 9.960938 9.960938 "/>
</clipPath>
</defs>
<g id="surface1">
<g clip-path="url(#clip1)" clip-rule="nonzero">
<path style="fill:none;stroke-width:0.99628;stroke-linecap:butt;stroke-linejoin:miter;stroke:rgb(0%,0%,0%);stroke-opacity:1;stroke-miterlimit:10;" d="M -170.080063 -0.00096875 L 170.080094 -0.00096875 " transform="matrix(1,0,0,-1,180.041,180.042)"/>
</g>
<g clip-path="url(#clip2)" clip-rule="nonzero">
<path style="fill:none;stroke-width:0.99628;stroke-linecap:butt;stroke-linejoin:miter;stroke:rgb(0%,0%,0%);stroke-opacity:1;stroke-miterlimit:10;" d="M -0.0019375 -42.5205 L -0.0019375 170.081063 " transform="matrix(1,0,0,-1,180.041,180.042)"/>
</g>
<g clip-path="url(#clip3)" clip-rule="nonzero">
<path style="fill:none;stroke-width:0.99628;stroke-linecap:butt;stroke-linejoin:miter;stroke:rgb(0%,0%,100%);stroke-opacity:1;stroke-miterlimit:10;" d="M -85.041 170.081063 L -77.955062 142.917 L -70.869125 118.112313 L -63.783187 95.674813 L -56.69725 75.596688 L -49.607406 57.877938 L -42.521469 42.526375 L -35.435531 29.534188 L -28.349594 18.901375 L -21.263656 10.63575 L -14.177719 4.725594 L -7.091781 1.182625 L -0.00584375 -0.00096875 L 7.080094 1.178719 L 14.166031 4.721688 L 21.251969 10.624031 L 28.341813 18.889656 L 35.42775 29.514656 L 42.513688 42.502938 L 49.599625 57.8545 L 56.685563 75.569344 L 63.7715 95.643563 L 70.857438 118.081063 L 77.943375 142.877938 L 85.029313 170.038094 " transform="matrix(1,0,0,-1,180.041,180.042)"/>
</g>
<g clip-path="url(#clip4)" clip-rule="nonzero">
<path style="fill:none;stroke-width:0.99628;stroke-linecap:butt;stroke-linejoin:miter;stroke:rgb(50%,50%,50%);stroke-opacity:1;stroke-miterlimit:10;" d="M -29.681625 170.081063 L 12.841813 -42.5205 " transform="matrix(1,0,0,-1,180.041,180.042)"/>
</g>
<g clip-path="url(#clip5)" clip-rule="nonzero">
<path style="fill:none;stroke-width:0.99628;stroke-linecap:butt;stroke-linejoin:miter;stroke:rgb(50%,50%,50%);stroke-opacity:1;stroke-miterlimit:10;" d="M -58.845687 170.081063 L 26.193375 -42.5205 " transform="matrix(1,0,0,-1,180.041,180.042)"/>
</g>
<g clip-path="url(#clip6)" clip-rule="nonzero">
<path style="fill:none;stroke-width:0.99628;stroke-linecap:butt;stroke-linejoin:miter;stroke:rgb(50%,50%,50%);stroke-opacity:1;stroke-miterlimit:10;" d="M -86.994125 170.081063 L 40.560563 -42.5205 " transform="matrix(1,0,0,-1,180.041,180.042)"/>
</g>
<g clip-path="url(#clip7)" clip-rule="nonzero">
<path style="fill:none;stroke-width:0.99628;stroke-linecap:butt;stroke-linejoin:miter;stroke:rgb(50%,50%,50%);stroke-opacity:1;stroke-miterlimit:10;" d="M -113.607406 170.081063 L 56.462906 -42.5205 " transform="matrix(1,0,0,-1,180.041,180.042)"/>
</g>
<g clip-path="url(#clip8)" clip-rule="nonzero">
<path style="fill:none;stroke-width:0.99628;stroke-linecap:butt;stroke-linejoin:miter;stroke:rgb(50%,50%,50%);stroke-opacity:1;stroke-miterlimit:10;" d="M -138.181625 170.081063 L 74.404313 -42.5205 " transform="matrix(1,0,0,-1,180.041,180.042)"/>
</g>
<g clip-path="url(#clip9)" clip-rule="nonzero">
<path style="fill:none;stroke-width:0.99628;stroke-linecap:butt;stroke-linejoin:miter;stroke:rgb(50%,50%,50%);stroke-opacity:1;stroke-miterlimit:10;" d="M -160.208969 170.081063 L 94.8965 -42.5205 " transform="matrix(1,0,0,-1,180.041,180.042)"/>
</g>
<g clip-path="url(#clip10)" clip-rule="nonzero">
<path style="fill:none;stroke-width:0.99628;stroke-linecap:butt;stroke-linejoin:miter;stroke:rgb(50%,50%,50%);stroke-opacity:1;stroke-miterlimit:10;" d="M -179.169906 170.081063 L 118.447281 -42.5205 " transform="matrix(1,0,0,-1,180.041,180.042)"/>
</g>
<g clip-path="url(#clip11)" clip-rule="nonzero">
<path style="fill:none;stroke-width:0.99628;stroke-linecap:butt;stroke-linejoin:miter;stroke:rgb(50%,50%,50%);stroke-opacity:1;stroke-miterlimit:10;" d="M -194.564438 170.081063 L 145.572281 -42.5205 " transform="matrix(1,0,0,-1,180.041,180.042)"/>
</g>
<g clip-path="url(#clip12)" clip-rule="nonzero">
<path style="fill:none;stroke-width:0.99628;stroke-linecap:butt;stroke-linejoin:miter;stroke:rgb(50%,50%,50%);stroke-opacity:1;stroke-miterlimit:10;" d="M -205.876938 170.081063 L 176.775406 -42.5205 " transform="matrix(1,0,0,-1,180.041,180.042)"/>
<path style="fill:none;stroke-width:0.99628;stroke-linecap:butt;stroke-linejoin:miter;stroke:rgb(50%,50%,50%);stroke-opacity:1;stroke-miterlimit:10;" d="M -212.595688 170.081063 L 212.572281 -42.5205 " transform="matrix(1,0,0,-1,180.041,180.042)"/>
<path style="fill:none;stroke-width:0.99628;stroke-linecap:butt;stroke-linejoin:miter;stroke:rgb(50%,50%,50%);stroke-opacity:1;stroke-miterlimit:10;" d="M -214.216781 170.081063 L 253.466813 -42.5205 " transform="matrix(1,0,0,-1,180.041,180.042)"/>
<path style="fill:none;stroke-width:0.99628;stroke-linecap:butt;stroke-linejoin:miter;stroke:rgb(50%,50%,50%);stroke-opacity:1;stroke-miterlimit:10;" d="M -210.2285 170.081063 L 299.974625 -42.5205 " transform="matrix(1,0,0,-1,180.041,180.042)"/>
<path style="fill:none;stroke-width:0.99628;stroke-linecap:butt;stroke-linejoin:miter;stroke:rgb(50%,50%,50%);stroke-opacity:1;stroke-miterlimit:10;" d="M -200.115219 170.081063 L 352.603531 -42.5205 " transform="matrix(1,0,0,-1,180.041,180.042)"/>
<path style="fill:none;stroke-width:0.99628;stroke-linecap:butt;stroke-linejoin:miter;stroke:rgb(50%,50%,50%);stroke-opacity:1;stroke-miterlimit:10;" d="M -183.369125 170.081063 L 411.86525 -42.5205 " transform="matrix(1,0,0,-1,180.041,180.042)"/>
<path style="fill:none;stroke-width:0.99628;stroke-linecap:butt;stroke-linejoin:miter;stroke:rgb(50%,50%,50%);stroke-opacity:1;stroke-miterlimit:10;" d="M -159.482406 170.081063 L 478.267594 -42.5205 " transform="matrix(1,0,0,-1,180.041,180.042)"/>
</g>
<g clip-path="url(#clip13)" clip-rule="nonzero">
<path style="fill:none;stroke-width:0.99628;stroke-linecap:butt;stroke-linejoin:miter;stroke:rgb(50%,50%,50%);stroke-opacity:1;stroke-miterlimit:10;" d="M -127.94725 170.081063 L 552.318375 -42.5205 " transform="matrix(1,0,0,-1,180.041,180.042)"/>
</g>
<g clip-path="url(#clip14)" clip-rule="nonzero">
<path style="fill:none;stroke-width:0.99628;stroke-linecap:butt;stroke-linejoin:miter;stroke:rgb(50%,50%,50%);stroke-opacity:1;stroke-miterlimit:10;" d="M -88.251937 170.081063 L 634.533219 -42.5205 " transform="matrix(1,0,0,-1,180.041,180.042)"/>
</g>
<g clip-path="url(#clip15)" clip-rule="nonzero">
<path style="fill:none;stroke-width:0.99628;stroke-linecap:butt;stroke-linejoin:miter;stroke:rgb(50%,50%,50%);stroke-opacity:1;stroke-miterlimit:10;" d="M -39.876937 170.081063 L 725.419938 -42.5205 " transform="matrix(1,0,0,-1,180.041,180.042)"/>
</g>
<g clip-path="url(#clip16)" clip-rule="nonzero">
<path style="fill:none;stroke-width:0.99628;stroke-linecap:butt;stroke-linejoin:miter;stroke:rgb(50%,50%,50%);stroke-opacity:1;stroke-miterlimit:10;" d="M 17.673844 170.081063 L 825.49025 -42.5205 " transform="matrix(1,0,0,-1,180.041,180.042)"/>
</g>
<g clip-path="url(#clip17)" clip-rule="nonzero">
<path style="fill:none;stroke-width:0.99628;stroke-linecap:butt;stroke-linejoin:miter;stroke:rgb(50%,50%,50%);stroke-opacity:1;stroke-miterlimit:10;" d="M 29.681656 170.081063 L -12.841781 -42.5205 " transform="matrix(1,0,0,-1,180.041,180.042)"/>
</g>
<g clip-path="url(#clip18)" clip-rule="nonzero">
<path style="fill:none;stroke-width:0.99628;stroke-linecap:butt;stroke-linejoin:miter;stroke:rgb(50%,50%,50%);stroke-opacity:1;stroke-miterlimit:10;" d="M 58.845719 170.081063 L -26.193344 -42.5205 " transform="matrix(1,0,0,-1,180.041,180.042)"/>
</g>
<g clip-path="url(#clip19)" clip-rule="nonzero">
<path style="fill:none;stroke-width:0.99628;stroke-linecap:butt;stroke-linejoin:miter;stroke:rgb(50%,50%,50%);stroke-opacity:1;stroke-miterlimit:10;" d="M 86.994156 170.081063 L -40.560531 -42.5205 " transform="matrix(1,0,0,-1,180.041,180.042)"/>
</g>
<g clip-path="url(#clip20)" clip-rule="nonzero">
<path style="fill:none;stroke-width:0.99628;stroke-linecap:butt;stroke-linejoin:miter;stroke:rgb(50%,50%,50%);stroke-opacity:1;stroke-miterlimit:10;" d="M 113.607438 170.081063 L -56.462875 -42.5205 " transform="matrix(1,0,0,-1,180.041,180.042)"/>
</g>
<g clip-path="url(#clip21)" clip-rule="nonzero">
<path style="fill:none;stroke-width:0.99628;stroke-linecap:butt;stroke-linejoin:miter;stroke:rgb(50%,50%,50%);stroke-opacity:1;stroke-miterlimit:10;" d="M 138.181656 170.081063 L -74.404281 -42.5205 " transform="matrix(1,0,0,-1,180.041,180.042)"/>
</g>
<g clip-path="url(#clip22)" clip-rule="nonzero">
<path style="fill:none;stroke-width:0.99628;stroke-linecap:butt;stroke-linejoin:miter;stroke:rgb(50%,50%,50%);stroke-opacity:1;stroke-miterlimit:10;" d="M 160.209 170.081063 L -94.896469 -42.5205 " transform="matrix(1,0,0,-1,180.041,180.042)"/>
</g>
<g clip-path="url(#clip23)" clip-rule="nonzero">
<path style="fill:none;stroke-width:0.99628;stroke-linecap:butt;stroke-linejoin:miter;stroke:rgb(50%,50%,50%);stroke-opacity:1;stroke-miterlimit:10;" d="M 179.169938 170.081063 L -118.44725 -42.5205 " transform="matrix(1,0,0,-1,180.041,180.042)"/>
</g>
<g clip-path="url(#clip24)" clip-rule="nonzero">
<path style="fill:none;stroke-width:0.99628;stroke-linecap:butt;stroke-linejoin:miter;stroke:rgb(50%,50%,50%);stroke-opacity:1;stroke-miterlimit:10;" d="M 194.564469 170.081063 L -145.57225 -42.5205 " transform="matrix(1,0,0,-1,180.041,180.042)"/>
</g>
<g clip-path="url(#clip25)" clip-rule="nonzero">
<path style="fill:none;stroke-width:0.99628;stroke-linecap:butt;stroke-linejoin:miter;stroke:rgb(50%,50%,50%);stroke-opacity:1;stroke-miterlimit:10;" d="M 205.876969 170.081063 L -176.775375 -42.5205 " transform="matrix(1,0,0,-1,180.041,180.042)"/>
<path style="fill:none;stroke-width:0.99628;stroke-linecap:butt;stroke-linejoin:miter;stroke:rgb(50%,50%,50%);stroke-opacity:1;stroke-miterlimit:10;" d="M 212.595719 170.081063 L -212.57225 -42.5205 " transform="matrix(1,0,0,-1,180.041,180.042)"/>
<path style="fill:none;stroke-width:0.99628;stroke-linecap:butt;stroke-linejoin:miter;stroke:rgb(50%,50%,50%);stroke-opacity:1;stroke-miterlimit:10;" d="M 214.216813 170.081063 L -253.466781 -42.5205 " transform="matrix(1,0,0,-1,180.041,180.042)"/>
<path style="fill:none;stroke-width:0.99628;stroke-linecap:butt;stroke-linejoin:miter;stroke:rgb(50%,50%,50%);stroke-opacity:1;stroke-miterlimit:10;" d="M 210.228531 170.081063 L -299.974594 -42.5205 " transform="matrix(1,0,0,-1,180.041,180.042)"/>
<path style="fill:none;stroke-width:0.99628;stroke-linecap:butt;stroke-linejoin:miter;stroke:rgb(50%,50%,50%);stroke-opacity:1;stroke-miterlimit:10;" d="M 200.11525 170.081063 L -352.6035 -42.5205 " transform="matrix(1,0,0,-1,180.041,180.042)"/>
<path style="fill:none;stroke-width:0.99628;stroke-linecap:butt;stroke-linejoin:miter;stroke:rgb(50%,50%,50%);stroke-opacity:1;stroke-miterlimit:10;" d="M 183.369156 170.081063 L -411.865219 -42.5205 " transform="matrix(1,0,0,-1,180.041,180.042)"/>
<path style="fill:none;stroke-width:0.99628;stroke-linecap:butt;stroke-linejoin:miter;stroke:rgb(50%,50%,50%);stroke-opacity:1;stroke-miterlimit:10;" d="M 159.482438 170.081063 L -478.267563 -42.5205 " transform="matrix(1,0,0,-1,180.041,180.042)"/>
</g>
<g clip-path="url(#clip26)" clip-rule="nonzero">
<path style="fill:none;stroke-width:0.99628;stroke-linecap:butt;stroke-linejoin:miter;stroke:rgb(50%,50%,50%);stroke-opacity:1;stroke-miterlimit:10;" d="M 127.947281 170.081063 L -552.318344 -42.5205 " transform="matrix(1,0,0,-1,180.041,180.042)"/>
</g>
<g clip-path="url(#clip27)" clip-rule="nonzero">
<path style="fill:none;stroke-width:0.99628;stroke-linecap:butt;stroke-linejoin:miter;stroke:rgb(50%,50%,50%);stroke-opacity:1;stroke-miterlimit:10;" d="M 88.251969 170.081063 L -634.533187 -42.5205 " transform="matrix(1,0,0,-1,180.041,180.042)"/>
</g>
<g clip-path="url(#clip28)" clip-rule="nonzero">
<path style="fill:none;stroke-width:0.99628;stroke-linecap:butt;stroke-linejoin:miter;stroke:rgb(50%,50%,50%);stroke-opacity:1;stroke-miterlimit:10;" d="M 39.876969 170.081063 L -725.419906 -42.5205 " transform="matrix(1,0,0,-1,180.041,180.042)"/>
</g>
<g clip-path="url(#clip29)" clip-rule="nonzero">
<path style="fill:none;stroke-width:0.99628;stroke-linecap:butt;stroke-linejoin:miter;stroke:rgb(50%,50%,50%);stroke-opacity:1;stroke-miterlimit:10;" d="M -17.673812 170.081063 L -825.490219 -42.5205 " transform="matrix(1,0,0,-1,180.041,180.042)"/>
</g>
<g clip-path="url(#clip30)" clip-rule="nonzero">
<path style="fill:none;stroke-width:0.99628;stroke-linecap:butt;stroke-linejoin:miter;stroke:rgb(100%,0%,0%);stroke-opacity:1;stroke-miterlimit:10;" d="M 1360.6465 531.502938 L 1113.92775 467.792 L 898.99025 408.327156 L 713.654313 353.108406 L 555.720719 302.139656 L 422.994156 255.413094 L 313.287125 212.940438 L 224.408219 174.713875 L 154.158219 140.7295 L 100.353531 110.999031 L 60.798844 85.51075 L 33.30275 64.272469 L 15.669938 47.280281 L 5.709 34.538094 L 1.232438 26.042 L 0.0449375 21.792 L -0.0449062 21.788094 L -1.2285 26.034188 L -5.705062 34.526375 L -15.658187 47.264656 L -33.279281 64.252938 L -60.767562 85.487313 L -100.310531 110.971688 L -154.099594 140.702156 L -224.330063 174.678719 L -313.193344 212.901375 L -422.876938 255.370125 L -555.583969 302.092781 L -713.490219 353.057625 L -898.802719 408.272469 L -1113.708969 467.733406 L -1360.396469 531.440438 " transform="matrix(1,0,0,-1,180.041,180.042)"/>
</g>
</g>
</svg>
